<svg width="50" height="50" viewBox="0 0 50 50" fill="none" xmlns="http://www.w3.org/2000/svg">
<path d="M25.001 21.2285V29.1681" stroke="black" stroke-width="3.48837" stroke-linecap="round" stroke-linejoin="round"/>
<path d="M25.001 21.2285V29.1681" stroke="black" stroke-width="3.48837" stroke-linecap="round" stroke-linejoin="round"/>
<path d="M25.001 4.1676V10.4176" stroke="black" stroke-width="3.48837" stroke-linecap="round" stroke-linejoin="round"/>
<path d="M25.001 4.1676V10.4176" stroke="black" stroke-width="3.48837" stroke-linecap="round" stroke-linejoin="round"/>
<path d="M39.5837 27.084V14.584C39.5837 13.479 39.1447 12.4191 38.3633 11.6377C37.5819 10.8563 36.5221 10.4174 35.417 10.4174H14.5837C13.4786 10.4174 12.4188 10.8563 11.6374 11.6377C10.856 12.4191 10.417 13.479 10.417 14.584V27.084" stroke="black" stroke-width="3.48837" stroke-linecap="round" stroke-linejoin="round"/>
<path d="M39.5837 27.084V14.584C39.5837 13.479 39.1447 12.4191 38.3633 11.6377C37.5819 10.8563 36.5221 10.4174 35.417 10.4174H14.5837C13.4786 10.4174 12.4188 10.8563 11.6374 11.6377C10.856 12.4191 10.417 13.479 10.417 14.584V27.084" stroke="black" stroke-width="3.48837" stroke-linecap="round" stroke-linejoin="round"/>
<path d="M40.3753 41.667C42.6163 37.8849 43.7832 33.5631 43.7503 29.167L26.6919 21.5858C26.1594 21.3492 25.5831 21.2269 25.0003 21.2269C24.4175 21.2269 23.8412 21.3492 23.3086 21.5858L6.25027 29.167C6.15383 35.0914 8.23719 40.8447 12.1044 45.3337" stroke="black" stroke-width="3.48837" stroke-linecap="round" stroke-linejoin="round"/>
<path d="M40.3753 41.667C42.6163 37.8849 43.7832 33.5631 43.7503 29.167L26.6919 21.5858C26.1594 21.3492 25.5831 21.2269 25.0003 21.2269C24.4175 21.2269 23.8412 21.3492 23.3086 21.5858L6.25027 29.167C6.15383 35.0914 8.23719 40.8447 12.1044 45.3337" stroke="black" stroke-width="3.48837" stroke-linecap="round" stroke-linejoin="round"/>
<path d="M4.16699 43.7502C5.41699 44.7919 6.66699 45.8335 9.37533 45.8335C14.5837 45.8335 14.5837 41.6669 19.792 41.6669C22.5003 41.6669 23.7503 42.7085 25.0003 43.7502C26.2503 44.7919 27.5003 45.8335 30.2087 45.8335C35.417 45.8335 35.417 41.6669 40.6253 41.6669C43.3337 41.6669 44.5837 42.7085 45.8337 43.7502" stroke="black" stroke-width="3.48837" stroke-linecap="round" stroke-linejoin="round"/>
<path d="M4.16699 43.7502C5.41699 44.7919 6.66699 45.8335 9.37533 45.8335C14.5837 45.8335 14.5837 41.6669 19.792 41.6669C22.5003 41.6669 23.7503 42.7085 25.0003 43.7502C26.2503 44.7919 27.5003 45.8335 30.2087 45.8335C35.417 45.8335 35.417 41.6669 40.6253 41.6669C43.3337 41.6669 44.5837 42.7085 45.8337 43.7502" stroke="black" stroke-width="3.48837" stroke-linecap="round" stroke-linejoin="round"/>
<path d="M25.001 21.2285V29.1681" stroke="black" stroke-width="3.48837" stroke-linecap="round" stroke-linejoin="round"/>
<path d="M25.001 21.2285V29.1681" stroke="black" stroke-width="3.48837" stroke-linecap="round" stroke-linejoin="round"/>
<path d="M25.001 4.1676V10.4176" stroke="black" stroke-width="3.48837" stroke-linecap="round" stroke-linejoin="round"/>
<path d="M25.001 4.1676V10.4176" stroke="black" stroke-width="3.48837" stroke-linecap="round" stroke-linejoin="round"/>
<path d="M39.5837 27.084V14.584C39.5837 13.479 39.1447 12.4191 38.3633 11.6377C37.5819 10.8563 36.5221 10.4174 35.417 10.4174H14.5837C13.4786 10.4174 12.4188 10.8563 11.6374 11.6377C10.856 12.4191 10.417 13.479 10.417 14.584V27.084" stroke="black" stroke-width="3.48837" stroke-linecap="round" stroke-linejoin="round"/>
<path d="M39.5837 27.084V14.584C39.5837 13.479 39.1447 12.4191 38.3633 11.6377C37.5819 10.8563 36.5221 10.4174 35.417 10.4174H14.5837C13.4786 10.4174 12.4188 10.8563 11.6374 11.6377C10.856 12.4191 10.417 13.479 10.417 14.584V27.084" stroke="black" stroke-width="3.48837" stroke-linecap="round" stroke-linejoin="round"/>
<path d="M40.3753 41.667C42.6163 37.8849 43.7832 33.5631 43.7503 29.167L26.6919 21.5858C26.1594 21.3492 25.5831 21.2269 25.0003 21.2269C24.4175 21.2269 23.8412 21.3492 23.3086 21.5858L6.25027 29.167C6.15383 35.0914 8.23719 40.8447 12.1044 45.3337" stroke="black" stroke-width="3.48837" stroke-linecap="round" stroke-linejoin="round"/>
<path d="M40.3753 41.667C42.6163 37.8849 43.7832 33.5631 43.7503 29.167L26.6919 21.5858C26.1594 21.3492 25.5831 21.2269 25.0003 21.2269C24.4175 21.2269 23.8412 21.3492 23.3086 21.5858L6.25027 29.167C6.15383 35.0914 8.23719 40.8447 12.1044 45.3337" stroke="black" stroke-width="3.48837" stroke-linecap="round" stroke-linejoin="round"/>
<path d="M4.16699 43.7502C5.41699 44.7919 6.66699 45.8335 9.37533 45.8335C14.5837 45.8335 14.5837 41.6669 19.792 41.6669C22.5003 41.6669 23.7503 42.7085 25.0003 43.7502C26.2503 44.7919 27.5003 45.8335 30.2087 45.8335C35.417 45.8335 35.417 41.6669 40.6253 41.6669C43.3337 41.6669 44.5837 42.7085 45.8337 43.7502" stroke="black" stroke-width="3.48837" stroke-linecap="round" stroke-linejoin="round"/>
<path d="M4.16699 43.7502C5.41699 44.7919 6.66699 45.8335 9.37533 45.8335C14.5837 45.8335 14.5837 41.6669 19.792 41.6669C22.5003 41.6669 23.7503 42.7085 25.0003 43.7502C26.2503 44.7919 27.5003 45.8335 30.2087 45.8335C35.417 45.8335 35.417 41.6669 40.6253 41.6669C43.3337 41.6669 44.5837 42.7085 45.8337 43.7502" stroke="black" stroke-width="3.48837" stroke-linecap="round" stroke-linejoin="round"/>
</svg>
