<svg width="16" height="16" viewBox="0 0 16 16" fill="none" xmlns="http://www.w3.org/2000/svg">
<g clip-path="url(#clip0_216_131)">
<path d="M8.39034 1.72392C8.14035 1.47385 7.80127 1.33333 7.44767 1.33325H2.66634C2.31272 1.33325 1.97358 1.47373 1.72353 1.72378C1.47348 1.97382 1.33301 2.31296 1.33301 2.66659V7.44792C1.33308 7.80151 1.47361 8.1406 1.72367 8.39059L7.52634 14.1933C7.82935 14.4943 8.23917 14.6633 8.66634 14.6633C9.09351 14.6633 9.50333 14.4943 9.80634 14.1933L14.193 9.80659C14.4941 9.50358 14.6631 9.09375 14.6631 8.66659C14.6631 8.23942 14.4941 7.82959 14.193 7.52659L8.39034 1.72392Z" stroke="white" stroke-width="2" stroke-linecap="round" stroke-linejoin="round"/>
<path d="M5.00033 5.33341C5.18442 5.33341 5.33366 5.18418 5.33366 5.00008C5.33366 4.81599 5.18442 4.66675 5.00033 4.66675C4.81623 4.66675 4.66699 4.81599 4.66699 5.00008C4.66699 5.18418 4.81623 5.33341 5.00033 5.33341Z" fill="black" stroke="white" stroke-width="2" stroke-linecap="round" stroke-linejoin="round"/>
</g>
<defs>
<clipPath id="clip0_216_131">
<rect width="16" height="16" fill="white"/>
</clipPath>
</defs>
</svg>
