<svg width="50" height="50" viewBox="0 0 50 50" fill="none" xmlns="http://www.w3.org/2000/svg">
<path d="M25.001 21.2285V29.1681" stroke="white" stroke-width="3.48837" stroke-linecap="round" stroke-linejoin="round"/>
<path d="M25.001 21.2285V29.1681" stroke="white" stroke-width="3.48837" stroke-linecap="round" stroke-linejoin="round"/>
<path d="M25.001 4.16772V10.4177" stroke="white" stroke-width="3.48837" stroke-linecap="round" stroke-linejoin="round"/>
<path d="M25.001 4.16772V10.4177" stroke="white" stroke-width="3.48837" stroke-linecap="round" stroke-linejoin="round"/>
<path d="M39.5837 27.0839V14.5839C39.5837 13.4788 39.1447 12.419 38.3633 11.6376C37.5819 10.8562 36.5221 10.4172 35.417 10.4172H14.5837C13.4786 10.4172 12.4188 10.8562 11.6374 11.6376C10.856 12.419 10.417 13.4788 10.417 14.5839V27.0839" stroke="white" stroke-width="3.48837" stroke-linecap="round" stroke-linejoin="round"/>
<path d="M39.5837 27.0839V14.5839C39.5837 13.4788 39.1447 12.419 38.3633 11.6376C37.5819 10.8562 36.5221 10.4172 35.417 10.4172H14.5837C13.4786 10.4172 12.4188 10.8562 11.6374 11.6376C10.856 12.419 10.417 13.4788 10.417 14.5839V27.0839" stroke="white" stroke-width="3.48837" stroke-linecap="round" stroke-linejoin="round"/>
<path d="M40.3753 41.6672C42.6163 37.885 43.7832 33.5632 43.7503 29.1672L26.6919 21.5859C26.1594 21.3493 25.5831 21.2271 25.0003 21.2271C24.4175 21.2271 23.8412 21.3493 23.3086 21.5859L6.25027 29.1672C6.15383 35.0915 8.23719 40.8448 12.1044 45.3338" stroke="white" stroke-width="3.48837" stroke-linecap="round" stroke-linejoin="round"/>
<path d="M40.3753 41.6672C42.6163 37.885 43.7832 33.5632 43.7503 29.1672L26.6919 21.5859C26.1594 21.3493 25.5831 21.2271 25.0003 21.2271C24.4175 21.2271 23.8412 21.3493 23.3086 21.5859L6.25027 29.1672C6.15383 35.0915 8.23719 40.8448 12.1044 45.3338" stroke="white" stroke-width="3.48837" stroke-linecap="round" stroke-linejoin="round"/>
<path d="M4.16699 43.7503C5.41699 44.792 6.66699 45.8337 9.37533 45.8337C14.5837 45.8337 14.5837 41.667 19.792 41.667C22.5003 41.667 23.7503 42.7087 25.0003 43.7503C26.2503 44.792 27.5003 45.8337 30.2087 45.8337C35.417 45.8337 35.417 41.667 40.6253 41.667C43.3337 41.667 44.5837 42.7087 45.8337 43.7503" stroke="white" stroke-width="3.48837" stroke-linecap="round" stroke-linejoin="round"/>
<path d="M4.16699 43.7503C5.41699 44.792 6.66699 45.8337 9.37533 45.8337C14.5837 45.8337 14.5837 41.667 19.792 41.667C22.5003 41.667 23.7503 42.7087 25.0003 43.7503C26.2503 44.792 27.5003 45.8337 30.2087 45.8337C35.417 45.8337 35.417 41.667 40.6253 41.667C43.3337 41.667 44.5837 42.7087 45.8337 43.7503" stroke="white" stroke-width="3.48837" stroke-linecap="round" stroke-linejoin="round"/>
<path d="M25.001 21.2285V29.1681" stroke="white" stroke-width="3.48837" stroke-linecap="round" stroke-linejoin="round"/>
<path d="M25.001 21.2285V29.1681" stroke="white" stroke-width="3.48837" stroke-linecap="round" stroke-linejoin="round"/>
<path d="M25.001 4.16748V10.4175" stroke="white" stroke-width="3.48837" stroke-linecap="round" stroke-linejoin="round"/>
<path d="M25.001 4.16748V10.4175" stroke="white" stroke-width="3.48837" stroke-linecap="round" stroke-linejoin="round"/>
<path d="M39.5837 27.0841V14.5841C39.5837 13.4791 39.1447 12.4193 38.3633 11.6379C37.5819 10.8565 36.5221 10.4175 35.417 10.4175H14.5837C13.4786 10.4175 12.4188 10.8565 11.6374 11.6379C10.856 12.4193 10.417 13.4791 10.417 14.5841V27.0841" stroke="white" stroke-width="3.48837" stroke-linecap="round" stroke-linejoin="round"/>
<path d="M39.5837 27.0841V14.5841C39.5837 13.4791 39.1447 12.4193 38.3633 11.6379C37.5819 10.8565 36.5221 10.4175 35.417 10.4175H14.5837C13.4786 10.4175 12.4188 10.8565 11.6374 11.6379C10.856 12.4193 10.417 13.4791 10.417 14.5841V27.0841" stroke="white" stroke-width="3.48837" stroke-linecap="round" stroke-linejoin="round"/>
<path d="M40.3753 41.6672C42.6163 37.885 43.7832 33.5632 43.7503 29.1672L26.6919 21.5859C26.1594 21.3493 25.5831 21.2271 25.0003 21.2271C24.4175 21.2271 23.8412 21.3493 23.3086 21.5859L6.25027 29.1672C6.15383 35.0915 8.23719 40.8448 12.1044 45.3338" stroke="white" stroke-width="3.48837" stroke-linecap="round" stroke-linejoin="round"/>
<path d="M40.3753 41.6672C42.6163 37.885 43.7832 33.5632 43.7503 29.1672L26.6919 21.5859C26.1594 21.3493 25.5831 21.2271 25.0003 21.2271C24.4175 21.2271 23.8412 21.3493 23.3086 21.5859L6.25027 29.1672C6.15383 35.0915 8.23719 40.8448 12.1044 45.3338" stroke="white" stroke-width="3.48837" stroke-linecap="round" stroke-linejoin="round"/>
<path d="M4.16699 43.7503C5.41699 44.792 6.66699 45.8337 9.37533 45.8337C14.5837 45.8337 14.5837 41.667 19.792 41.667C22.5003 41.667 23.7503 42.7087 25.0003 43.7503C26.2503 44.792 27.5003 45.8337 30.2087 45.8337C35.417 45.8337 35.417 41.667 40.6253 41.667C43.3337 41.667 44.5837 42.7087 45.8337 43.7503" stroke="white" stroke-width="3.48837" stroke-linecap="round" stroke-linejoin="round"/>
<path d="M4.16699 43.7503C5.41699 44.792 6.66699 45.8337 9.37533 45.8337C14.5837 45.8337 14.5837 41.667 19.792 41.667C22.5003 41.667 23.7503 42.7087 25.0003 43.7503C26.2503 44.792 27.5003 45.8337 30.2087 45.8337C35.417 45.8337 35.417 41.667 40.6253 41.667C43.3337 41.667 44.5837 42.7087 45.8337 43.7503" stroke="white" stroke-width="3.48837" stroke-linecap="round" stroke-linejoin="round"/>
</svg>
