<svg width="14" height="14" viewBox="0 0 14 14" fill="none" xmlns="http://www.w3.org/2000/svg">
<path d="M8.45866 2.33325H5.54199L4.08366 4.08325H2.33366C2.02424 4.08325 1.72749 4.20617 1.5087 4.42496C1.28991 4.64375 1.16699 4.9405 1.16699 5.24992V10.4999C1.16699 10.8093 1.28991 11.1061 1.5087 11.3249C1.72749 11.5437 2.02424 11.6666 2.33366 11.6666H11.667C11.9764 11.6666 12.2732 11.5437 12.492 11.3249C12.7107 11.1061 12.8337 10.8093 12.8337 10.4999V5.24992C12.8337 4.9405 12.7107 4.64375 12.492 4.42496C12.2732 4.20617 11.9764 4.08325 11.667 4.08325H9.91699L8.45866 2.33325Z" stroke="white" stroke-width="2" stroke-linecap="round" stroke-linejoin="round"/>
<path d="M7 9.33325C7.9665 9.33325 8.75 8.54975 8.75 7.58325C8.75 6.61675 7.9665 5.83325 7 5.83325C6.0335 5.83325 5.25 6.61675 5.25 7.58325C5.25 8.54975 6.0335 9.33325 7 9.33325Z" stroke="white" stroke-width="2" stroke-linecap="round" stroke-linejoin="round"/>
</svg>
